<svg xmlns="http://www.w3.org/2000/svg" width="24" height="24" viewBox="0 0 24 24">
    <path fill="#78909C" fill-rule="nonzero" d="M15.38 8.599a.225.225 0 0 0-.132-.254 4.936 4.936 0 0 0-2.022-.403 4.509 4.509 0 0 0-4.5 4.504c0 1.642 1.093 2.5 2.177 2.5a2.914 2.914 0 0 0 2.416-1.224c.052.288.188.554.39.765.295.307.705.476 1.13.47 1.708 0 3.44-1.554 3.44-4.52C18.279 7.239 16.027 5 12.803 5 8.928 5 6 8.073 6 12.146c0 3.392 2.393 5.85 5.691 5.85a6.77 6.77 0 0 0 3.313-.745.235.235 0 0 0 .108-.291l-.287-.775a.24.24 0 0 0-.14-.136.24.24 0 0 0-.197 0 5.307 5.307 0 0 1-2.576.606c-2.628 0-4.392-1.877-4.392-4.627 0-3.326 2.173-5.738 5.161-5.738 2.543 0 4.12 1.628 4.12 4.223a3.754 3.754 0 0 1-.887 2.674 1.192 1.192 0 0 1-.802.385.357.357 0 0 1-.277-.122c-.103-.136-.254-.525-.038-1.614L15.38 8.6zm-2.06 2.65c-.188 1.047-1.084 2.257-1.967 2.257-.882 0-.938-.793-.938-1.135 0-1.628 1.201-3.003 2.628-3.003.21-.001.421.02.628.061l-.352 1.82z"/>
</svg>
