<svg xmlns="http://www.w3.org/2000/svg" xmlns:xlink="http://www.w3.org/1999/xlink" width="18" height="18" viewBox="0 0 18 18">
    <defs>
        <filter id="a" width="115.4%" height="211.1%" x="-7.7%" y="-55.6%" filterUnits="objectBoundingBox">
            <feOffset dy="2" in="SourceAlpha" result="shadowOffsetOuter1"/>
            <feGaussianBlur in="shadowOffsetOuter1" result="shadowBlurOuter1" stdDeviation="4"/>
            <feColorMatrix in="shadowBlurOuter1" result="shadowMatrixOuter1" values="0 0 0 0 0.188235294 0 0 0 0 0.454901961 0 0 0 0 0.952941176 0 0 0 0.2 0"/>
            <feMerge>
                <feMergeNode in="shadowMatrixOuter1"/>
                <feMergeNode in="SourceGraphic"/>
            </feMerge>
        </filter>
        <path id="b" d="M13.682 7.16c0-.495-.044-.971-.127-1.428H6.981v2.7h3.757a3.212 3.212 0 0 1-1.393 2.107v1.752H11.6c1.32-1.216 2.081-3.005 2.081-5.131z"/>
        <path id="d" d="M6.98 13.982c1.886 0 3.466-.625 4.62-1.691l-2.255-1.752c-.625.419-1.425.666-2.364.666-1.818 0-3.357-1.228-3.906-2.878H.743v1.809a6.978 6.978 0 0 0 6.238 3.846z"/>
        <path id="f" d="M3.075 8.327a4.195 4.195 0 0 1-.22-1.326c0-.46.08-.908.22-1.326V3.866H.743a6.978 6.978 0 0 0 0 6.27l2.332-1.809z"/>
        <path id="h" d="M6.98 2.797c1.026 0 1.946.352 2.67 1.044l2.002-2.003C10.442.712 8.862.02 6.98.02A6.978 6.978 0 0 0 .743 3.866l2.332 1.809c.549-1.65 2.088-2.878 3.906-2.878z"/>
    </defs>
    <g fill="none" fill-rule="evenodd" filter="url(#a)" transform="translate(2 2)">
        <mask id="c" fill="#fff">
            <use xlink:href="#b"/>
        </mask>
        <path fill="#FFF" d="M6.98 12.29h6.702V5.733H6.981z" mask="url(#c)"/>
        <mask id="e" fill="#fff">
            <use xlink:href="#d"/>
        </mask>
        <path fill="#FFF" d="M.743 13.982H11.6V8.327H.743z" mask="url(#e)"/>
        <mask id="g" fill="#fff">
            <use xlink:href="#f"/>
        </mask>
        <path fill="#FFF" d="M0 10.136h3.075v-6.27H0z" mask="url(#g)"/>
        <mask id="i" fill="#fff">
            <use xlink:href="#h"/>
        </mask>
        <path fill="#FFF" d="M.743 5.675h10.909V.02H.742z" mask="url(#i)"/>
    </g>
</svg>
