<svg xmlns="http://www.w3.org/2000/svg" width="24" height="24" viewBox="0 0 24 24">
    <path fill="#78909C" fill-rule="nonzero" stroke="#78909C" stroke-width=".7" d="M17.038 5.959a3.263 3.263 0 0 0-4.62 0l-1.43 1.436c.277 0 .554.033.823.098l1.07-1.07a2.611 2.611 0 1 1 3.694 3.694l-2.767 2.768a2.61 2.61 0 0 1-3.694 0 2.48 2.48 0 0 1-.653-1.188l-.496.496c.133.436.37.833.692 1.155a3.262 3.262 0 0 0 4.614 0l2.774-2.768a3.264 3.264 0 0 0-.007-4.621zm-6.924 10.62a2.611 2.611 0 1 1-3.694-3.694l2.767-2.768a2.61 2.61 0 0 1 3.694 0c.324.328.55.74.653 1.188l.496-.496a2.78 2.78 0 0 0-.692-1.155 3.262 3.262 0 0 0-4.614 0L5.957 12.42a3.269 3.269 0 0 0 4.62 4.622l1.43-1.436c-.277 0-.553-.033-.823-.098l-1.07 1.07z"/>
</svg>
