<svg xmlns="http://www.w3.org/2000/svg" width="90" height="90" viewBox="0 0 90 90">
    <g fill="none" fill-rule="evenodd">
        <g fill="#F4F6F8" stroke="#CFD8DC" stroke-linejoin="round" stroke-width="2">
            <path d="M73.703 52.718l13-6.934a1 1 0 0 1 1.47.883v19.666a1 1 0 0 1-1.47.883l-13-6.934a1 1 0 0 1-.53-.882v-5.8a1 1 0 0 1 .53-.882z"/>
            <path d="M34.174 37h30c5.523 0 10 4.477 10 10v20c0 5.523-4.477 10-10 10h-30c-5.523 0-10-4.477-10-10V47c0-5.523 4.477-10 10-10z"/>
        </g>
        <path fill="#F4F6F8" stroke="#CFD8DC" stroke-width="2" d="M31 12c13.807 0 25 11.193 25 25S44.807 62 31 62c-4.123 0-8.013-.998-11.441-2.766C9.193 60.777-.466 56.594 2.566 55.71c1.967-.575 4.833-2.45 7.399-5.193A24.883 24.883 0 0 1 6 37c0-13.807 11.193-25 25-25z"/>
        <g fill="#CFD8DC" transform="translate(18.174 35)">
            <circle cx="2.5" cy="2.5" r="2.5"/>
            <circle cx="12.5" cy="2.5" r="2.5"/>
            <circle cx="22.5" cy="2.5" r="2.5"/>
        </g>
        <path d="M0 0h90v90H0z"/>
    </g>
</svg>
