<svg xmlns="http://www.w3.org/2000/svg" width="90" height="90" viewBox="0 0 90 90">
    <g fill="none" fill-rule="evenodd" stroke="#CFD8DC" stroke-width="2">
        <path fill="#F4F6F8" d="M58 14c-13.807 0-25 11.193-25 25s11.193 25 25 25c4.123 0 8.013-.998 11.441-2.766 10.366 1.543 20.025-2.64 16.993-3.525-1.967-.575-4.833-2.45-7.399-5.193A24.883 24.883 0 0 0 83 39c0-13.807-11.193-25-25-25z"/>
        <path stroke-linecap="round" stroke-linejoin="round" d="M58 22c9.389 0 17 7.611 17 17"/>
        <path fill="#F4F6F8" d="M33 26c13.807 0 25 11.193 25 25S46.807 76 33 76c-4.123 0-8.013-.998-11.441-2.766-10.366 1.543-20.025-2.64-16.993-3.525 1.967-.575 4.833-2.45 7.399-5.193A24.883 24.883 0 0 1 8 51c0-13.807 11.193-25 25-25z"/>
        <g stroke-linecap="round" stroke-linejoin="round">
            <path d="M24 51.5h18M24 58.5h18M24 44.5h18"/>
        </g>
    </g>
</svg>
