<svg xmlns="http://www.w3.org/2000/svg" xmlns:xlink="http://www.w3.org/1999/xlink" width="24" height="24" viewBox="0 0 24 24">
    <defs>
        <path id="a" d="M0 0h21.987v21.076H0z"/>
    </defs>
    <g fill="none" fill-rule="evenodd" transform="translate(1 1)">
        <mask id="b" fill="#fff">
            <use xlink:href="#a"/>
        </mask>
        <path fill="#FFF" d="M11.396 14c-1.654 0-3-1.346-3-3s1.346-3 3-3 3 1.346 3 3-1.346 3-3 3zm7.788-1.977V9.977l.836-.651a2 2 0 0 0 .503-2.58l-.87-1.503a2 2 0 0 0-2.474-.855l-1.002.401-1.773-1.023-.151-1.051A2 2 0 0 0 12.273 1h-1.755a2 2 0 0 0-1.98 1.715l-.15 1.051L6.616 4.79l-1.003-.401a2 2 0 0 0-2.474.855l-.87 1.503a2 2 0 0 0 .502 2.58l.837.651v2.046l-.837.651a2 2 0 0 0-.502 2.58l.87 1.503a2 2 0 0 0 2.474.855l1.003-.401 1.772 1.023.15 1.051A2 2 0 0 0 10.519 21h1.755a2 2 0 0 0 1.98-1.715l.151-1.051 1.773-1.023 1.002.4a2 2 0 0 0 2.474-.854l.87-1.503a2 2 0 0 0-.503-2.58l-.836-.651z" mask="url(#b)"/>
    </g>
</svg>
