<svg xmlns="http://www.w3.org/2000/svg" width="18" height="18" viewBox="0 0 18 18">
    <path fill="#B0BEC5" fill-rule="evenodd" d="M6.79 9.143A2.32 2.32 0 0 1 9.11 6.825a2.32 2.32 0 0 1 2.318 2.318 2.32 2.32 0 0 1-2.318 2.318A2.32 2.32 0 0 1 6.79 9.143zm8.634.833c.034-.272.06-.544.06-.833 0-.289-.026-.561-.06-.833l1.794-1.403L15.1 3.236l-2.115.85a6.233 6.233 0 0 0-1.438-.834L11.225 1H6.992L6.67 3.252a6.55 6.55 0 0 0-1.436.833l-2.117-.85L1 6.908 2.793 8.31c-.034.272-.06.553-.06.833 0 .28.026.561.06.833L1 11.378l2.116 3.672 2.117-.85c.442.34.919.621 1.436.834l.323 2.252h4.233l.323-2.253a6.556 6.556 0 0 0 1.438-.832l2.115.85 2.117-3.672-1.794-1.403z"/>
</svg>
